<svg id="Calque_1" data-name="Calque 1" xmlns="http://www.w3.org/2000/svg" viewBox="0 0 900.63 126.12"><defs><style>.cls-1{fill:#00a460;}</style></defs><title>bouton_centre</title><path class="cls-1" d="M837.58,21.74H63.05a17.06,17.06,0,0,0-4.7.7,21.3,21.3,0,0,0-4.56,1.93,19.89,19.89,0,0,0-3.92,2.88,13.92,13.92,0,0,0-2.76,3.57L13.05,96.11a12.1,12.1,0,0,0-1.44,4.76,7.19,7.19,0,0,0,.8,4,6.56,6.56,0,0,0,2.85,2.71,10.32,10.32,0,0,0,4.69,1H880.69a10.32,10.32,0,0,0,4.69-1,6.56,6.56,0,0,0,2.85-2.71,7.19,7.19,0,0,0,.8-4,12.11,12.11,0,0,0-1.44-4.76L853.51,30.83a13.91,13.91,0,0,0-2.76-3.57,19.93,19.93,0,0,0-3.92-2.88,21.31,21.31,0,0,0-4.55-1.93,17.05,17.05,0,0,0-4.7-.7"/></svg>